<svg xmlns="http://www.w3.org/2000/svg" xml:space="preserve" width="256" height="256"><g style="stroke:none;stroke-width:0;stroke-dasharray:none;stroke-linecap:butt;stroke-linejoin:miter;stroke-miterlimit:10;fill:none;fill-rule:nonzero;opacity:1"><path d="M71.326 90H18.674C8.361 90 0 81.639 0 71.326V18.674C0 8.361 8.361 0 18.674 0h52.652C81.639 0 90 8.361 90 18.674v52.652C90 81.639 81.639 90 71.326 90z" style="stroke:none;stroke-width:1;stroke-dasharray:none;stroke-linecap:butt;stroke-linejoin:miter;stroke-miterlimit:10;fill:#000;fill-rule:nonzero;opacity:1" transform="scale(2.81)"/></g><g style="stroke:none;stroke-width:0;stroke-dasharray:none;stroke-linecap:butt;stroke-linejoin:miter;stroke-miterlimit:10;fill:none;fill-rule:nonzero;opacity:1"><path d="M78.796 37.03a27.843 27.843 0 0 0-2.008-8.054C72.57 18.822 62.56 11.682 50.88 11.682a27.904 27.904 0 0 0-14.837 4.243c-6.649 4.156-11.43 11.021-12.802 19.051h-3.198C8.974 34.976 0 43.95 0 55.02s8.974 20.044 20.044 20.044h49.912C81.026 75.064 90 66.09 90 55.02c0-7.896-4.568-14.723-11.204-17.99z" style="stroke:none;stroke-width:1;stroke-dasharray:none;stroke-linecap:butt;stroke-linejoin:miter;stroke-miterlimit:10;fill:#69e3ff;fill-rule:nonzero;opacity:1" transform="matrix(2.81 0 0 2.81 1.603 1.603)"/><path d="M11.395 6.861a.463.463 0 0 0 .292-.436.463.463 0 0 0-.292-.436.551.551 0 0 1-.299-.722l.36-.868a.554.554 0 0 1 .722-.299.465.465 0 0 0 .515-.102.462.462 0 0 0 .102-.515.554.554 0 0 1 .299-.722l.869-.36a.554.554 0 0 1 .722.299c.112.27.362.291.436.291s.324-.021.436-.292a.554.554 0 0 1 .722-.299l.868.36a.554.554 0 0 1 .299.722.465.465 0 0 0 .102.515.462.462 0 0 0 .515.102.554.554 0 0 1 .722.299l.36.868a.554.554 0 0 1-.299.722c-.27.112-.292.362-.292.436s.021.324.292.436c.281.117.415.44.299.722l-.36.868a.551.551 0 0 1-.722.299.465.465 0 0 0-.515.102.464.464 0 0 0-.102.515.553.553 0 0 1-.299.722l-.868.36a.555.555 0 0 1-.422 0 .548.548 0 0 1-.299-.299.463.463 0 0 0-.436-.292.463.463 0 0 0-.436.292.554.554 0 0 1-.722.299l-.869-.36a.554.554 0 0 1-.299-.722.465.465 0 0 0-.102-.515.462.462 0 0 0-.515-.102.554.554 0 0 1-.722-.299l-.36-.868a.552.552 0 0 1 .298-.721zm3.726 1.088c.841 0 1.525-.684 1.525-1.525s-.684-1.525-1.525-1.525-1.525.684-1.525 1.525.684 1.525 1.525 1.525z" style="stroke:none;stroke-width:1;stroke-dasharray:none;stroke-linecap:butt;stroke-linejoin:miter;stroke-miterlimit:10;fill:#007ff3;fill-rule:nonzero;opacity:1" transform="translate(-3.86 -3.86) scale(10.93)"/><path d="M41.939 58.51H36.45v-3.874h3.36a1.534 1.534 0 0 0 0-3.068h-3.36v-3.874h5.489a1.534 1.534 0 0 0 0-3.068h-7.023c-.847 0-1.534.687-1.534 1.534v13.885c0 .847.687 1.534 1.534 1.534h7.023a1.534 1.534 0 0 0 0-3.069zM29.447 60.044v-4.288c0-1.013-.376-1.93-.976-2.655.6-.725.976-1.642.976-2.655v-1.633a4.194 4.194 0 0 0-4.189-4.189h-4.78c-.847 0-1.534.687-1.534 1.534v13.884a1.534 1.534 0 0 0 3.068 0v-5.408h3.246c.618 0 1.121.502 1.121 1.121v4.288a1.534 1.534 0 0 0 3.068.001zm-7.434-8.477v-3.874h3.246c.618 0 1.121.502 1.121 1.121v1.633c0 .618-.503 1.121-1.121 1.121h-3.246zM69.521 44.625h-8.759a1.534 1.534 0 0 0 0 3.068h2.845v12.351a1.534 1.534 0 0 0 3.068 0V47.693h2.845a1.534 1.534 0 0 0 .001-3.068zM50.729 47.693h1.287c.7 0 1.27.521 1.27 1.163a1.534 1.534 0 0 0 3.068 0c0-2.333-1.947-4.231-4.339-4.231h-1.287c-2.475 0-4.488 1.963-4.488 4.375v1.261c0 2.412 2.013 4.375 4.488 4.375h1.139c.783 0 1.419.586 1.419 1.306v1.261c0 .72-.636 1.306-1.419 1.306H50.58c-.701 0-1.271-.522-1.271-1.164a1.534 1.534 0 0 0-3.068 0c0 2.333 1.947 4.232 4.34 4.232h1.287c2.474 0 4.487-1.963 4.487-4.375v-1.261c0-2.412-2.013-4.375-4.487-4.375h-1.139c-.783 0-1.42-.586-1.42-1.306v-1.261c0-.72.637-1.306 1.42-1.306zM34.58 66.32h-2.631a4.533 4.533 0 0 0-4.528 4.528v10.89a1.534 1.534 0 0 0 3.068 0V76.33h5.55v5.408a1.534 1.534 0 0 0 3.068 0v-10.89a4.531 4.531 0 0 0-4.527-4.528zm-4.09 6.942v-2.414c0-.805.655-1.46 1.46-1.46h2.631c.805 0 1.46.655 1.46 1.46v2.414H30.49zM59.309 66.32c-.847 0-1.534.687-1.534 1.534v13.885a1.534 1.534 0 0 0 3.068 0V67.854c0-.847-.687-1.534-1.534-1.534zM50.007 66.32h-5.083c-.847 0-1.534.687-1.534 1.534v13.884a1.534 1.534 0 0 0 3.069 0v-4.562h3.549a4.245 4.245 0 0 0 4.239-4.24V70.56a4.246 4.246 0 0 0-4.24-4.24zm1.17 6.617c0 .646-.525 1.172-1.171 1.172h-3.55v-4.72h3.55c.645 0 1.171.525 1.171 1.172v2.376z" style="stroke:none;stroke-width:1;stroke-dasharray:none;stroke-linecap:butt;stroke-linejoin:miter;stroke-miterlimit:10;fill:#007ff3;fill-rule:nonzero;opacity:1" transform="matrix(2.81 0 0 2.81 1.603 1.603)"/></g></svg>